<?xml version='1.0' encoding='utf-8'?>
<svg xmlns="http://www.w3.org/2000/svg" width="1100" height="800" viewBox="0 0 1100 800" color="#d6c0e3">
  <defs>
   <linearGradient id="cover-paper" x2="1" y2="1"><stop stop-color="#403149" /><stop offset=".65" stop-color="#292439" /><stop offset="1" stop-color="#3e304b" /></linearGradient>
   <linearGradient id="cover-binding"><stop stop-color="#161321" /><stop offset=".35" stop-color="#65516d" stop-opacity=".5" /><stop offset="1" stop-color="#65516d" stop-opacity="0" /></linearGradient>
   <pattern id="cover-fibers" width="89" height="61" patternUnits="userSpaceOnUse"><path d="M8 14l17 1m28 24 22-1M39 5l2 8m-26 32 12 1" fill="none" stroke="#dccbe5" stroke-opacity=".045" stroke-width=".6" /></pattern>
  </defs>
  <rect x=".75" y=".75" width="1098.5" height="798.5" rx="7" fill="url(#cover-paper)" stroke="#bba5c4" stroke-opacity=".8" stroke-width="1.5" />
  <rect x="1" y="1" width="1098" height="798" rx="7" fill="url(#cover-fibers)" />
  <path d="M7 1H60V799H7Q1 799 1 793V7Q1 1 7 1Z" fill="url(#cover-binding)" />
  <rect x="34" y="25" width="1040" height="749" rx="5" fill="none" stroke="#cbb0d3" stroke-opacity=".34" stroke-width=".8" />
  <path d="M16 26V774" stroke="#c0a1c7" stroke-opacity=".3" stroke-width=".7" />
  <svg x="435" y="245" width="230" height="230" viewBox="0 0 240 240" fill="none">
   <circle cx="120" cy="120" r="99" stroke="currentColor" stroke-opacity=".28" stroke-width=".8" />
   <ellipse cx="120" cy="120" rx="108" ry="75" transform="rotate(-30 120 120)" stroke="currentColor" stroke-opacity=".15" stroke-width=".8" />
   <g stroke="currentColor" stroke-linecap="round" stroke-linejoin="round">
    <path d="M119 131C108 110 75 74 54 78C43 80 59 120 83 133C60 132 65 160 83 169C101 179 114 151 119 131ZM121 131C132 110 165 74 186 78C197 80 181 120 157 133C180 132 175 160 157 169C139 179 126 151 121 131Z" fill="currentColor" fill-opacity=".045" stroke-width="1.5" />
    <path d="M119 131L64 91L83 116L106 122M83 133L103 144L83 160M121 131L176 91L157 116L134 122M157 133L137 144L157 160" stroke-opacity=".45" stroke-width=".8" />
    <path d="M120 145V122M118 124Q115 110 108 107M122 124Q125 110 132 107" stroke-width="1.4" />
    <path d="M120 11V27M112 19H128M120 213V229M112 221H128" stroke-width="1" />
    <path d="M35 151L50 107L92 49L160 57L206 112L193 176L145 207" stroke-opacity=".17" stroke-width=".8" />
   </g>
   <g fill="currentColor"><circle cx="50" cy="107" r="1.8" /><circle cx="92" cy="49" r="2" /><circle cx="160" cy="57" r="1.5" /><circle cx="206" cy="112" r="2" /><circle cx="193" cy="176" r="1.5" /><circle cx="145" cy="207" r="1.8" /></g>
  </svg>
  </svg>