<svg xmlns="http://www.w3.org/2000/svg" width="50" height="50" viewBox="0 0 50 50"><defs>
    <linearGradient id="gold" x2="0" y2="1"><stop stop-color="#f5cf87"/><stop offset=".5" stop-color="#d89a4b"/><stop offset="1" stop-color="#97502d"/></linearGradient>
    <linearGradient id="purple" x2="0" y2="1"><stop stop-color="#d9b5f1"/><stop offset=".5" stop-color="#a578cd"/><stop offset="1" stop-color="#69518e"/></linearGradient>
    <linearGradient id="blue" x2="0" y2="1"><stop stop-color="#c0eff3"/><stop offset=".5" stop-color="#79bed8"/><stop offset="1" stop-color="#4c739c"/></linearGradient>
    <linearGradient id="shimmer" x2="1" y2="1"><stop stop-color="#f5b9db"/><stop offset=".5" stop-color="#bca0ed"/><stop offset="1" stop-color="#8bd3d9"/></linearGradient>
    <linearGradient id="cream" x2="0" y2="1"><stop stop-color="#fff3d8"/><stop offset=".5" stop-color="#e9d4ac"/><stop offset="1" stop-color="#b3997b"/></linearGradient>
    <linearGradient id="red" x2="0" y2="1"><stop stop-color="#ec9da0"/><stop offset=".5" stop-color="#b8586b"/><stop offset="1" stop-color="#794255"/></linearGradient>
    </defs><g stroke="#3c2b48" stroke-width="1.15" stroke-linejoin="round" stroke-linecap="round"><path d="M10 28H6q-3 0-3 4t7 3m30-7h4q3 0 3 4t-7 3" fill="none" stroke="#8f779d" stroke-width="2.5"/><path d="M9 27h32l-3 13q-2 6-13 6t-13-6Z" fill="url(#purple)"/><ellipse cx="25" cy="27" rx="16" ry="5" fill="#d4bfdc"/><ellipse cx="25" cy="27" rx="13" ry="3.8" fill="#a86643" stroke="#79513e"/><path d="m15 24 6-1 2 4-6 2Z" fill="#d6ad6d"/><path d="m26 25 6-2 3 4-7 2Z" fill="#98575b"/><path d="m23 28 3-2 3 2-3 2Z" fill="#9ab078" stroke="none"/><path d="m15 34 1 5m7-20c-5-5 4-5 0-10m8 10c-4-4 4-4 0-8" fill="none" stroke="#e2cfeb" stroke-width="1"/><path d="M14 39q11 6 22 0" fill="none" stroke="#dcc29d" stroke-width=".8"/></g></svg>