<svg xmlns="http://www.w3.org/2000/svg" width="50" height="50" viewBox="0 0 50 50"><defs>
    <linearGradient id="gold" x2="0" y2="1"><stop stop-color="#f5cf87"/><stop offset=".5" stop-color="#d89a4b"/><stop offset="1" stop-color="#97502d"/></linearGradient>
    <linearGradient id="purple" x2="0" y2="1"><stop stop-color="#d9b5f1"/><stop offset=".5" stop-color="#a578cd"/><stop offset="1" stop-color="#69518e"/></linearGradient>
    <linearGradient id="blue" x2="0" y2="1"><stop stop-color="#c0eff3"/><stop offset=".5" stop-color="#79bed8"/><stop offset="1" stop-color="#4c739c"/></linearGradient>
    <linearGradient id="shimmer" x2="1" y2="1"><stop stop-color="#f5b9db"/><stop offset=".5" stop-color="#bca0ed"/><stop offset="1" stop-color="#8bd3d9"/></linearGradient>
    <linearGradient id="cream" x2="0" y2="1"><stop stop-color="#fff3d8"/><stop offset=".5" stop-color="#e9d4ac"/><stop offset="1" stop-color="#b3997b"/></linearGradient>
    <linearGradient id="red" x2="0" y2="1"><stop stop-color="#ec9da0"/><stop offset=".5" stop-color="#b8586b"/><stop offset="1" stop-color="#794255"/></linearGradient>
    </defs><g stroke="#3c2b48" stroke-width="1.15" stroke-linejoin="round" stroke-linecap="round"><ellipse cx="25" cy="42" rx="20" ry="4" fill="#d9d1e6"/><path d="M9 26h32l-4 13q-1 4-12 4T13 39Z" fill="url(#cream)"/><ellipse cx="25" cy="26" rx="16" ry="7" fill="#efd899"/><ellipse cx="25" cy="25" rx="13.5" ry="5.5" fill="url(#gold)" stroke="#bc8a49"/><path d="m19 22 3 4-2 3m2-3 5-2 4 3 4-2m-8-1 1-3" fill="none" stroke="#91552e" stroke-width=".7"/><path d="M16 32l2 7m6-6 1 7m8-7-1 6" stroke="#bdae97" stroke-width=".75"/><path d="M13 26q1-3 5-4" fill="none" stroke="#ffe9b9" stroke-width="1.1"/><path d="m37 13 .6 2.1 2.1.6-2.1.6-.6 2.1-.6-2.1-2.1-.6 2.1-.6Z" fill="#efdb96" stroke-width=".5"/></g></svg>