<svg xmlns="http://www.w3.org/2000/svg" width="50" height="50" viewBox="0 0 50 50"><ellipse cx="25" cy="41" rx="17" ry="4" fill="#f1ecf8" stroke="#221a40" stroke-width="1.2"/><ellipse cx="25" cy="40.4" rx="12.5" ry="2.2" fill="#d9d0ea"/><path d="M14.5 38.6 17.2 23.6c.4-2 2-3.2 4-3.2h7.6c2 0 3.6 1.2 4 3.2l2.7 15c-5.8 2.6-15.2 2.6-21 0Z" fill="#7fb6ff" fill-opacity=".9" stroke="#221a40" stroke-width="1.3" stroke-linejoin="round"/><path d="M18 23.4c1.6-2.2 12.4-2.2 14 0-.6 1.6-13.4 1.6-14 0Z" fill="#4f82d8"/><path d="M18.2 24.8c-.4 3.4.2 4.6 1.2 4.6s1.2-1.6 1.4-3.6Z" fill="#4f82d8"/><path d="M29.6 25c0 2.2.6 3.2 1.4 3.2s1-1 1.1-2.6Z" fill="#4f82d8"/><circle cx="21.6" cy="31.4" r="1.05" fill="#1d2a52"/><circle cx="28.4" cy="31.4" r="1.05" fill="#1d2a52"/><path d="M23.6 33.6q1.4 1.2 2.8 0" stroke="#1d2a52" stroke-width=".85" fill="none" stroke-linecap="round"/><circle cx="19.6" cy="33.6" r="1.1" fill="#f497c0" fill-opacity=".6"/><circle cx="30.4" cy="33.6" r="1.1" fill="#f497c0" fill-opacity=".6"/><path d="M17.4 27l-1.3 8.4" stroke="#fff" stroke-opacity=".75" stroke-width="1.3" stroke-linecap="round"/><circle cx="25" cy="17.8" r="2.3" fill="#f497c0" stroke="#7a3456" stroke-width=".6"/><path d="M25.4 15.6c.5-2 1.7-3 3.3-3.4" stroke="#6b8f5a" stroke-width=".85" fill="none" stroke-linecap="round"/><path d="M24.2 17a.9.9 0 0 1 .9-.7" stroke="#fff" stroke-width=".6" stroke-linecap="round"/><path d="M43 3.4 L43.6 5.4 L45.6 6 L43.6 6.6 L43 8.6 L42.4 6.6 L40.4 6 L42.4 5.4 Z" fill="#e4d8ff" stroke="#5a45a8" stroke-width=".4" stroke-linejoin="round"/><circle cx="9" cy="11" r=".9" fill="#e4d8ff"/></svg>