<svg xmlns="http://www.w3.org/2000/svg" width="50" height="50" viewBox="0 0 50 50"><defs>
    <linearGradient id="gold" x2="0" y2="1"><stop stop-color="#f5cf87"/><stop offset=".5" stop-color="#d89a4b"/><stop offset="1" stop-color="#97502d"/></linearGradient>
    <linearGradient id="purple" x2="0" y2="1"><stop stop-color="#d9b5f1"/><stop offset=".5" stop-color="#a578cd"/><stop offset="1" stop-color="#69518e"/></linearGradient>
    <linearGradient id="blue" x2="0" y2="1"><stop stop-color="#c0eff3"/><stop offset=".5" stop-color="#79bed8"/><stop offset="1" stop-color="#4c739c"/></linearGradient>
    <linearGradient id="shimmer" x2="1" y2="1"><stop stop-color="#f5b9db"/><stop offset=".5" stop-color="#bca0ed"/><stop offset="1" stop-color="#8bd3d9"/></linearGradient>
    <linearGradient id="cream" x2="0" y2="1"><stop stop-color="#fff3d8"/><stop offset=".5" stop-color="#e9d4ac"/><stop offset="1" stop-color="#b3997b"/></linearGradient>
    <linearGradient id="red" x2="0" y2="1"><stop stop-color="#ec9da0"/><stop offset=".5" stop-color="#b8586b"/><stop offset="1" stop-color="#794255"/></linearGradient>
    </defs><g stroke="#3c2b48" stroke-width="1.15" stroke-linejoin="round" stroke-linecap="round"><path d="M19 10h12v8l6 7v16q0 4-5 4H18q-5 0-5-4V25l6-7Z" fill="#b0d7e6" fill-opacity=".5"/><path d="M15 30q10-3 20 0v11q0 2-3 2H18q-3 0-3-2Z" fill="url(#blue)" stroke="none"/><path d="M15 30q10-3 20 0" fill="none" stroke="#e3f7fb"/><rect x="18" y="6" width="14" height="5" rx="1" fill="#b6b1d5"/><path d="M20 8h9M17 25v9" stroke="#f0f9ff"/><path d="M25 33a4.5 4.5 0 1 0 4 7 3.8 3.8 0 0 1-4-7Z" fill="#eaf5fb" stroke="#91b9d6" stroke-width=".6"/><circle cx="31" cy="34" r=".7" fill="#f2fbff" stroke="none"/></g></svg>