<svg xmlns="http://www.w3.org/2000/svg" width="50" height="50" viewBox="0 0 50 50"><defs>
    <linearGradient id="gold" x2="0" y2="1"><stop stop-color="#f5cf87"/><stop offset=".5" stop-color="#d89a4b"/><stop offset="1" stop-color="#97502d"/></linearGradient>
    <linearGradient id="purple" x2="0" y2="1"><stop stop-color="#d9b5f1"/><stop offset=".5" stop-color="#a578cd"/><stop offset="1" stop-color="#69518e"/></linearGradient>
    <linearGradient id="blue" x2="0" y2="1"><stop stop-color="#c0eff3"/><stop offset=".5" stop-color="#79bed8"/><stop offset="1" stop-color="#4c739c"/></linearGradient>
    <linearGradient id="shimmer" x2="1" y2="1"><stop stop-color="#f5b9db"/><stop offset=".5" stop-color="#bca0ed"/><stop offset="1" stop-color="#8bd3d9"/></linearGradient>
    <linearGradient id="cream" x2="0" y2="1"><stop stop-color="#fff3d8"/><stop offset=".5" stop-color="#e9d4ac"/><stop offset="1" stop-color="#b3997b"/></linearGradient>
    <linearGradient id="red" x2="0" y2="1"><stop stop-color="#ec9da0"/><stop offset=".5" stop-color="#b8586b"/><stop offset="1" stop-color="#794255"/></linearGradient>
    </defs><g stroke="#3c2b48" stroke-width="1.15" stroke-linejoin="round" stroke-linecap="round"><path d="M25 5c-3 9-14 19-14 27a14 14 0 0 0 28 0C39 24 28 14 25 5Z" fill="url(#shimmer)"/><path d="M18 23q-4 6-3 10" fill="none" stroke="#fff0fc" stroke-width="1.6"/><path d="m26 28 .9 3.1 3.1.9-3.1.9-.9 3.1-.9-3.1-3.1-.9 3.1-.9Z" fill="#f4ecff" stroke="none"/><circle cx="32" cy="38" r=".8" fill="#ddf7f8" stroke="none"/></g></svg>