<svg xmlns="http://www.w3.org/2000/svg" width="100" height="100" viewBox="0 0 64 64">
  <title>A · 星力药水</title>
  <desc>候选瓶型，建议用于星力药水外观候选。宽底三角配深蓝药液，保留一大一小两颗十字星。</desc>
  <defs>
    <clipPath id="body"><path d="M27 16H37V24L53 51Q55 56 49 56H15Q9 56 11 51L27 24Z"/></clipPath>
    <linearGradient id="liquid" x1="0" y1="0" x2="0" y2="1"><stop stop-color="#9dbdff"/><stop offset=".38" stop-color="#3152c8"/><stop offset="1" stop-color="#131a66"/></linearGradient>
    <linearGradient id="cork" x2="0" y2="1"><stop stop-color="#e7c8a0"/><stop offset=".5" stop-color="#bc9273"/><stop offset="1" stop-color="#8c6271"/></linearGradient>
  </defs>
  <g transform="rotate(0 32 32)">
  <path d="M27 16H37V24L53 51Q55 56 49 56H15Q9 56 11 51L27 24Z" fill="#e6e0ff" fill-opacity=".3"/>
  <g clip-path="url(#body)">
    <g transform="rotate(0 32 32)">
      <path d="M5 36Q18 33 32 36T59 36V64H5Z" fill="url(#liquid)"/>
      <path d="M5 36Q18 33 32 36T59 36" fill="none" stroke="#9dbdff" stroke-width=".9"/>
    </g>
    <path d="M27 26 22 53M37 26 45 53M14 52H49" fill="none" stroke="#9dbdff" stroke-width=".65" stroke-opacity=".7"/>
    <g fill="#f6e4be" stroke="#917487" stroke-width=".4" stroke-linejoin="round"><path d="m29 39 1.1 4.4 4.4 1.1-4.4 1.1-1.1 4.4-1.1-4.4-4.4-1.1 4.4-1.1Z"/><path d="m40 46 .7 2.8 2.8.7-2.8.7-.7 2.8-.7-2.8-2.8-.7 2.8-.7Z"/></g>
    <circle cx="39" cy="41" r=".9" fill="none" stroke="#f4e8ff" stroke-width=".65"/>
    <circle cx="23" cy="48" r=".6" fill="#efdef1"/>
  </g>
  <path d="M27 16H37V24L53 51Q55 56 49 56H15Q9 56 11 51L27 24Z" fill="none" stroke="#4b395d" stroke-width="1.4" stroke-linejoin="round"/>
  <path d="M24 31 16 48" fill="none" stroke="#fff" stroke-width="1.5" stroke-opacity=".8" stroke-linecap="round"/>
  <path d="M28.0 16v4" stroke="#fff" stroke-opacity=".55" stroke-width=".85" stroke-linecap="round"/>
  <rect x="26.0" y="8" width="12" height="6" rx="1.7" fill="url(#cork)" stroke="#634555" stroke-width=".8"/>
  <path d="M28.0 10h8" stroke="#f0cf9c" stroke-width=".8" stroke-linecap="round"/>
  <circle cx="28.0" cy="12.6" r=".45" fill="#785162"/>
  <rect x="25.0" y="14" width="14" height="2.8" rx="1.2" fill="#d8c9e6" stroke="#6c537e" stroke-width=".85"/>
  <path d="M26 18h12v2.5H26Z" fill="#cba5cd" stroke="#805785" stroke-width=".65"/><path d="M36 19q8-5 10 0-1 4-10 1Zm0 1q4 4 8 6l-1-4 3 1q-3-4-10-3Z" fill="#d6b7d7" stroke="#805785" stroke-width=".65"/><path d="m31 20-3 7" stroke="#d3b186" stroke-width=".7"/><circle cx="28" cy="28" r="2.2" fill="#edd4a8" stroke="#937285" stroke-width=".6"/>
  </g>
</svg>