<svg xmlns="http://www.w3.org/2000/svg" width="50" height="50" viewBox="0 0 50 50"><defs>
    <linearGradient id="gold" x2="0" y2="1"><stop stop-color="#f5cf87" /><stop offset=".5" stop-color="#d89a4b" /><stop offset="1" stop-color="#97502d" /></linearGradient>
    <linearGradient id="purple" x2="0" y2="1"><stop stop-color="#d9b5f1" /><stop offset=".5" stop-color="#a578cd" /><stop offset="1" stop-color="#69518e" /></linearGradient>
    <linearGradient id="blue" x2="0" y2="1"><stop stop-color="#c0eff3" /><stop offset=".5" stop-color="#79bed8" /><stop offset="1" stop-color="#4c739c" /></linearGradient>
    <linearGradient id="shimmer" x2="1" y2="1"><stop stop-color="#f5b9db" /><stop offset=".5" stop-color="#bca0ed" /><stop offset="1" stop-color="#8bd3d9" /></linearGradient>
    <linearGradient id="cream" x2="0" y2="1"><stop stop-color="#fff3d8" /><stop offset=".5" stop-color="#e9d4ac" /><stop offset="1" stop-color="#b3997b" /></linearGradient>
    <linearGradient id="red" x2="0" y2="1"><stop stop-color="#ec9da0" /><stop offset=".5" stop-color="#b8586b" /><stop offset="1" stop-color="#794255" /></linearGradient>
    <filter id="pencil-tooth" x="-8%" y="-8%" width="116%" height="116%" color-interpolation-filters="sRGB">
      <feTurbulence type="fractalNoise" baseFrequency="1.35" numOctaves="3" seed="17" result="grain" />
      <feDisplacementMap in="SourceGraphic" in2="grain" scale=".24" xChannelSelector="R" yChannelSelector="G" result="rough" />
      <feColorMatrix in="grain" type="luminanceToAlpha" />
      <feComponentTransfer><feFuncA type="linear" slope=".35" intercept=".65" /></feComponentTransfer>
      <feComposite in="rough" operator="in" />
    </filter><pattern id="pencil-hatch-0" width="3.6" height="3.6" patternUnits="userSpaceOnUse"><rect width="3.6" height="3.6" fill="#a7c5cd" /><path d="M-.5 3.55 1.1 2.06 2.2 1.24 3.6-.5M3.1 4.1 4.1 3.1" fill="none" stroke="#73518d" stroke-width=".58" opacity=".76" /><path d="M.05 3.6 1.5 2.3 2.5 1.35 3.6.2" fill="none" stroke="#efdcf7" stroke-width=".18" opacity=".4" /></pattern><pattern id="pencil-hatch-1" width="3.6" height="3.6" patternUnits="userSpaceOnUse"><rect width="3.6" height="3.6" fill="#ab94d3" /><path d="M-.5 3.55 1.1 2.06 2.2 1.24 3.6-.5M3.1 4.1 4.1 3.1" fill="none" stroke="#73518d" stroke-width=".58" opacity=".76" /><path d="M.05 3.6 1.5 2.3 2.5 1.35 3.6.2" fill="none" stroke="#efdcf7" stroke-width=".18" opacity=".4" /></pattern><pattern id="pencil-hatch-2" width="3.6" height="3.6" patternUnits="userSpaceOnUse"><rect width="3.6" height="3.6" fill="#c7b38e" /><path d="M-.5 3.55 1.1 2.06 2.2 1.24 3.6-.5M3.1 4.1 4.1 3.1" fill="none" stroke="#73518d" stroke-width=".58" opacity=".76" /><path d="M.05 3.6 1.5 2.3 2.5 1.35 3.6.2" fill="none" stroke="#efdcf7" stroke-width=".18" opacity=".4" /></pattern><pattern id="pencil-hatch-3" width="3.6" height="3.6" patternUnits="userSpaceOnUse"><rect width="3.6" height="3.6" fill="#ac93c2" /><path d="M-.5 3.55 1.1 2.06 2.2 1.24 3.6-.5M3.1 4.1 4.1 3.1" fill="none" stroke="#73518d" stroke-width=".58" opacity=".76" /><path d="M.05 3.6 1.5 2.3 2.5 1.35 3.6.2" fill="none" stroke="#efdcf7" stroke-width=".18" opacity=".4" /></pattern></defs><g filter="url(#pencil-tooth)" stroke-linecap="round" stroke-linejoin="round"><g stroke="#79558f" stroke-width="0.69" stroke-linejoin="round" stroke-linecap="round"><path d="m14 34 5-8 11-11 6 6-11 11-8 5-5 1Z" fill="url(#pencil-hatch-0)" /><path d="m16 34 6-6 10-10 2 2-11 11-6 4Z" fill="url(#pencil-hatch-1)" stroke="none" /><path d="m24 21 7-7 7 7-7 7Z" fill="url(#pencil-hatch-2)" /><path d="m28 16 4-7c2-4 6-5 9-2s2 7-2 9l-6 5Z" fill="url(#pencil-hatch-3)" /><path d="m34 9 2-1 2 1" fill="none" stroke="#79558f" stroke-width="0.6" stroke-linecap="round" stroke-linejoin="round" /><path d="m34 9 2-1 2 1" fill="none" stroke="#79558f" stroke-width=".28" stroke-linecap="round" stroke-linejoin="round" opacity=".4" transform="translate(.22 -.16)" /><path d="m13 39-2 3a2.5 2.5 0 0 0 5 0Z" fill="url(#pencil-hatch-1)" /><path d="m27 20 7 7m-5-9 7 7" stroke="#79558f" stroke-width="0.39" stroke-linecap="round" stroke-linejoin="round" /><path d="m18 27 4-4m15 11 .5 1.7 1.7.5-1.7.5-.5 1.7-.5-1.7-1.7-.5 1.7-.5Z" fill="#e8daef" stroke="#79558f" stroke-width="0.36" stroke-linecap="round" stroke-linejoin="round" /></g></g></svg>