<svg xmlns="http://www.w3.org/2000/svg" width="50" height="50" viewBox="0 0 50 50"><defs><linearGradient id="p" x1="0" y1="0" x2="0" y2="1"><stop offset="0" stop-color="#a79db4" /><stop offset="1" stop-color="#5f5770" /></linearGradient><filter id="pencil-tooth" x="-8%" y="-8%" width="116%" height="116%" color-interpolation-filters="sRGB">
      <feTurbulence type="fractalNoise" baseFrequency="1.35" numOctaves="3" seed="17" result="grain" />
      <feDisplacementMap in="SourceGraphic" in2="grain" scale=".24" xChannelSelector="R" yChannelSelector="G" result="rough" />
      <feColorMatrix in="grain" type="luminanceToAlpha" />
      <feComponentTransfer><feFuncA type="linear" slope=".35" intercept=".65" /></feComponentTransfer>
      <feComposite in="rough" operator="in" />
    </filter><pattern id="pencil-hatch-0" width="3.6" height="3.6" patternUnits="userSpaceOnUse"><rect width="3.6" height="3.6" fill="#b29fc2" /><path d="M-.5 3.55 1.1 2.06 2.2 1.24 3.6-.5M3.1 4.1 4.1 3.1" fill="none" stroke="#73518d" stroke-width=".58" opacity=".76" /><path d="M.05 3.6 1.5 2.3 2.5 1.35 3.6.2" fill="none" stroke="#efdcf7" stroke-width=".18" opacity=".4" /></pattern><pattern id="pencil-hatch-1" width="3.6" height="3.6" patternUnits="userSpaceOnUse"><rect width="3.6" height="3.6" fill="#9d85b1" /><path d="M-.5 3.55 1.1 2.06 2.2 1.24 3.6-.5M3.1 4.1 4.1 3.1" fill="none" stroke="#73518d" stroke-width=".58" opacity=".76" /><path d="M.05 3.6 1.5 2.3 2.5 1.35 3.6.2" fill="none" stroke="#efdcf7" stroke-width=".18" opacity=".4" /></pattern><pattern id="pencil-hatch-2" width="3.6" height="3.6" patternUnits="userSpaceOnUse"><rect width="3.6" height="3.6" fill="#b4a5c8" /><path d="M-.5 3.55 1.1 2.06 2.2 1.24 3.6-.5M3.1 4.1 4.1 3.1" fill="none" stroke="#73518d" stroke-width=".58" opacity=".76" /><path d="M.05 3.6 1.5 2.3 2.5 1.35 3.6.2" fill="none" stroke="#efdcf7" stroke-width=".18" opacity=".4" /></pattern><pattern id="pencil-hatch-3" width="3.6" height="3.6" patternUnits="userSpaceOnUse"><rect width="3.6" height="3.6" fill="#b5a8ca" /><path d="M-.5 3.55 1.1 2.06 2.2 1.24 3.6-.5M3.1 4.1 4.1 3.1" fill="none" stroke="#73518d" stroke-width=".58" opacity=".76" /><path d="M.05 3.6 1.5 2.3 2.5 1.35 3.6.2" fill="none" stroke="#efdcf7" stroke-width=".18" opacity=".4" /></pattern><pattern id="pencil-hatch-4" width="3.6" height="3.6" patternUnits="userSpaceOnUse"><rect width="3.6" height="3.6" fill="#de98ca" /><path d="M-.5 3.55 1.1 2.06 2.2 1.24 3.6-.5M3.1 4.1 4.1 3.1" fill="none" stroke="#73518d" stroke-width=".58" opacity=".76" /><path d="M.05 3.6 1.5 2.3 2.5 1.35 3.6.2" fill="none" stroke="#efdcf7" stroke-width=".18" opacity=".4" /></pattern><pattern id="pencil-hatch-5" width="3.6" height="3.6" patternUnits="userSpaceOnUse"><rect width="3.6" height="3.6" fill="#8dccda" /><path d="M-.5 3.55 1.1 2.06 2.2 1.24 3.6-.5M3.1 4.1 4.1 3.1" fill="none" stroke="#73518d" stroke-width=".58" opacity=".76" /><path d="M.05 3.6 1.5 2.3 2.5 1.35 3.6.2" fill="none" stroke="#efdcf7" stroke-width=".18" opacity=".4" /></pattern></defs><g filter="url(#pencil-tooth)" stroke-linecap="round" stroke-linejoin="round"><path d="M26 44c1.6-4.4 4.6-6.8 8-6.8s6.4 2.4 8 6.8Z" fill="url(#pencil-hatch-0)" stroke="#79558f" stroke-width="0.66" stroke-linejoin="round" stroke-linecap="round" /><path d="M26 44c1.6-4.4 4.6-6.8 8-6.8s6.4 2.4 8 6.8Z" fill="none" stroke="#79558f" stroke-width=".28" stroke-linejoin="round" stroke-linecap="round" opacity=".4" transform="translate(.22 -.16)" /><path d="M13.5 20.5c-3 4.5-5 9.5-5 14 0 6 5 9 11.5 9s11.5-3 11.5-9c0-4.5-2-9.5-5-14Z" fill="url(#pencil-hatch-1)" stroke="#79558f" stroke-width="0.84" stroke-linejoin="round" stroke-linecap="round" /><path d="M13.5 20.5c-3 4.5-5 9.5-5 14 0 6 5 9 11.5 9s11.5-3 11.5-9c0-4.5-2-9.5-5-14Z" fill="none" stroke="#79558f" stroke-width=".28" stroke-linejoin="round" stroke-linecap="round" opacity=".4" transform="translate(.22 -.16)" /><path d="M12 20.5c2.5-1.8 13.5-1.8 16 0-1 2-14.9 2-16 0Z" fill="url(#pencil-hatch-2)" stroke="#79558f" stroke-width="0.66" stroke-linecap="round" stroke-linejoin="round" /><path d="M12 20.5c2.5-1.8 13.5-1.8 16 0-1 2-14.9 2-16 0Z" fill="none" stroke="#79558f" stroke-width=".28" stroke-linecap="round" stroke-linejoin="round" opacity=".4" transform="translate(.22 -.16)" /><path d="M13 23.2c4 1.4 10 1.4 14 0" fill="none" stroke="#79558f" stroke-width="0.84" stroke-linecap="round" stroke-linejoin="round" /><path d="M13 23.2c4 1.4 10 1.4 14 0" fill="none" stroke="#79558f" stroke-width=".28" stroke-linecap="round" stroke-linejoin="round" opacity=".4" transform="translate(.22 -.16)" /><path d="M26 23.4c2.5 1.2 3.8 3 4 5.6M26.4 23.3c3.4-.2 5.5.8 6.6 2.8" fill="none" stroke="#79558f" stroke-width="0.66" stroke-linecap="round" stroke-linejoin="round" /><path d="M26 23.4c2.5 1.2 3.8 3 4 5.6M26.4 23.3c3.4-.2 5.5.8 6.6 2.8" fill="none" stroke="#79558f" stroke-width=".28" stroke-linecap="round" stroke-linejoin="round" opacity=".4" transform="translate(.22 -.16)" /><path d="M17 17.5c-1.8-1-1.4-3.4.6-3.6.4-2.2 3.4-2.6 4.3-.6 1.8-.8 3.6.8 2.9 2.6 1.4.6 1.2 2.4-.3 2.6Z" fill="url(#pencil-hatch-3)" fill-opacity=".92" stroke="#79558f" stroke-width="0.48" stroke-linejoin="round" stroke-linecap="round" /><path d="M17 17.5c-1.8-1-1.4-3.4.6-3.6.4-2.2 3.4-2.6 4.3-.6 1.8-.8 3.6.8 2.9 2.6 1.4.6 1.2 2.4-.3 2.6Z" fill="none" fill-opacity=".92" stroke="#79558f" stroke-width=".28" stroke-linejoin="round" stroke-linecap="round" opacity=".4" transform="translate(.22 -.16)" /><path d="M12.5 31c.3-2.6 1.3-5 2.8-7" stroke="#e6d4ef" stroke-opacity=".55" stroke-width="0.768" stroke-linecap="round" stroke-linejoin="round" /><path d="M20 31l.8 2.2 2.2.8-2.2.8-.8 2.2-.8-2.2-2.2-.8 2.2-.8Z" fill="#e8daef" fill-opacity=".9" stroke="#79558f" stroke-width="0.28" stroke-linecap="round" stroke-linejoin="round" /><circle cx="36" cy="33" r=".8" fill="url(#pencil-hatch-4)" /><circle cx="39.4" cy="35.6" r=".6" fill="url(#pencil-hatch-5)" /><circle cx="31.5" cy="11" r=".7" fill="url(#pencil-hatch-4)" /><path d="M43 3.4 L43.6 5.4 L45.6 6 L43.6 6.6 L43 8.6 L42.4 6.6 L40.4 6 L42.4 5.4 Z" fill="#e8daef" stroke="#79558f" stroke-width="0.28" stroke-linejoin="round" stroke-linecap="round" /><circle cx="9" cy="11" r=".9" fill="#e8daef" /></g></svg>