<svg xmlns="http://www.w3.org/2000/svg" width="50" height="50" viewBox="0 0 50 50"><defs><linearGradient id="t" x1="0" y1="0" x2="0" y2="1"><stop offset="0" stop-color="#f5cc85" /><stop offset=".6" stop-color="#d4924a" /><stop offset="1" stop-color="#a8652e" /></linearGradient><filter id="pencil-tooth" x="-8%" y="-8%" width="116%" height="116%" color-interpolation-filters="sRGB">
      <feTurbulence type="fractalNoise" baseFrequency="1.35" numOctaves="3" seed="17" result="grain" />
      <feDisplacementMap in="SourceGraphic" in2="grain" scale=".24" xChannelSelector="R" yChannelSelector="G" result="rough" />
      <feColorMatrix in="grain" type="luminanceToAlpha" />
      <feComponentTransfer><feFuncA type="linear" slope=".35" intercept=".65" /></feComponentTransfer>
      <feComposite in="rough" operator="in" />
    </filter><pattern id="pencil-hatch-0" width="3.6" height="3.6" patternUnits="userSpaceOnUse"><rect width="3.6" height="3.6" fill="#c7a784" /><path d="M-.5 3.55 1.1 2.06 2.2 1.24 3.6-.5M3.1 4.1 4.1 3.1" fill="none" stroke="#73518d" stroke-width=".58" opacity=".76" /><path d="M.05 3.6 1.5 2.3 2.5 1.35 3.6.2" fill="none" stroke="#efdcf7" stroke-width=".18" opacity=".4" /></pattern><pattern id="pencil-hatch-1" width="3.6" height="3.6" patternUnits="userSpaceOnUse"><rect width="3.6" height="3.6" fill="#d7bf83" /><path d="M-.5 3.55 1.1 2.06 2.2 1.24 3.6-.5M3.1 4.1 4.1 3.1" fill="none" stroke="#73518d" stroke-width=".58" opacity=".76" /><path d="M.05 3.6 1.5 2.3 2.5 1.35 3.6.2" fill="none" stroke="#efdcf7" stroke-width=".18" opacity=".4" /></pattern></defs><g filter="url(#pencil-tooth)" stroke-linecap="round" stroke-linejoin="round"><path d="M7.5 34.5C7.5 25 15.4 18 25 18s17.5 7 17.5 16.5c0 3.6-2.8 5.8-6.6 5.8H14.1c-3.8 0-6.6-2.2-6.6-5.8Z" fill="url(#pencil-hatch-0)" stroke="#79558f" stroke-width="0.84" stroke-linejoin="round" stroke-linecap="round" /><path d="M7.5 34.5C7.5 25 15.4 18 25 18s17.5 7 17.5 16.5c0 3.6-2.8 5.8-6.6 5.8H14.1c-3.8 0-6.6-2.2-6.6-5.8Z" fill="none" stroke="#79558f" stroke-width=".28" stroke-linejoin="round" stroke-linecap="round" opacity=".4" transform="translate(.22 -.16)" /><path d="M9.4 36.6c3.4 2.4 27.8 2.4 31.2 0" fill="none" stroke="#79558f" stroke-width="0.54" stroke-opacity=".55" stroke-linecap="round" stroke-linejoin="round" /><path d="M9.4 36.6c3.4 2.4 27.8 2.4 31.2 0" fill="none" stroke="#79558f" stroke-width=".28" stroke-opacity=".55" stroke-linecap="round" stroke-linejoin="round" opacity=".4" transform="translate(.22 -.16)" /><path d="M15.8 25.2l3.2 4.4M23.6 22.4l2.6 5.4M31.4 23.8l1.6 4.8" stroke="#79558f" stroke-width="1.08" stroke-linecap="round" stroke-linejoin="round" /><path d="M15.8 25.2l3.2 4.4M23.6 22.4l2.6 5.4M31.4 23.8l1.6 4.8" stroke="#79558f" stroke-width=".28" stroke-linecap="round" stroke-linejoin="round" fill="none" opacity=".4" transform="translate(.22 -.16)" /><path d="M16.4 25.9l2.6 3.6M24.1 23.3l2.1 4.5M31.8 24.7l1.2 3.9" stroke="#79558f" stroke-width="0.42" stroke-linecap="round" stroke-linejoin="round" /><path d="M11.8 31.5c.8-4.2 3.6-7.6 7.6-9.2" fill="none" stroke="#e6d4ef" stroke-opacity=".5" stroke-width="0.768" stroke-linecap="round" stroke-linejoin="round" /><path d="M28.6 18.6c3.4.4 6 1.9 7.6 4.3.6 1-.1 2.4-.9 3.2-.3-1-1-1.6-1.7-1.5-.2 1.4-1.2 2.1-2 1.7.3-1.8-.8-3.6-3-4.9Z" fill="url(#pencil-hatch-1)" stroke="#79558f" stroke-width="0.36" stroke-linejoin="round" stroke-linecap="round" /><g fill="#e8daef"><path d="M14 32.4l.5 1.3 1.3.5-1.3.5-.5 1.3-.5-1.3-1.3-.5 1.3-.5Z" /><path d="M36.2 31.2l.4 1 1 .4-1 .4-.4 1-.4-1-1-.4 1-.4Z" /><circle cx="21" cy="34" r=".6" /><circle cx="28.4" cy="31.6" r=".55" /><circle cx="31.8" cy="35" r=".5" /></g><path d="M43 3.4 L43.6 5.4 L45.6 6 L43.6 6.6 L43 8.6 L42.4 6.6 L40.4 6 L42.4 5.4 Z" fill="#e8daef" stroke="#79558f" stroke-width="0.28" stroke-linejoin="round" stroke-linecap="round" /><circle cx="9" cy="11" r=".9" fill="#e8daef" /></g></svg>