<svg xmlns="http://www.w3.org/2000/svg" width="50" height="50" viewBox="0 0 50 50"><defs><filter id="pencil-tooth" x="-8%" y="-8%" width="116%" height="116%" color-interpolation-filters="sRGB">
      <feTurbulence type="fractalNoise" baseFrequency="1.35" numOctaves="3" seed="17" result="grain" />
      <feDisplacementMap in="SourceGraphic" in2="grain" scale=".24" xChannelSelector="R" yChannelSelector="G" result="rough" />
      <feColorMatrix in="grain" type="luminanceToAlpha" />
      <feComponentTransfer><feFuncA type="linear" slope=".35" intercept=".65" /></feComponentTransfer>
      <feComposite in="rough" operator="in" />
    </filter><pattern id="pencil-hatch-0" width="3.6" height="3.6" patternUnits="userSpaceOnUse"><rect width="3.6" height="3.6" fill="#c8b98e" /><path d="M-.5 3.55 1.1 2.06 2.2 1.24 3.6-.5M3.1 4.1 4.1 3.1" fill="none" stroke="#73518d" stroke-width=".58" opacity=".76" /><path d="M.05 3.6 1.5 2.3 2.5 1.35 3.6.2" fill="none" stroke="#efdcf7" stroke-width=".18" opacity=".4" /></pattern></defs><g filter="url(#pencil-tooth)" stroke-linecap="round" stroke-linejoin="round"><g fill="url(#pencil-hatch-0)" stroke="#79558f" stroke-width="0.66" stroke-linecap="round" stroke-linejoin="round"><path d="M24 8v22l-8 14m8-14 9 14m-9-17L12 15m12 8 11-10m-13 22-10 1m16-1 11 3" fill="none" /><path d="m12 15-4-6 9 4m18 0 5-7-10 6" /></g></g></svg>