# This file uses centimeters as units for non-parametric coordinates.

mtllib bing.mtl
g default
v -0.167124 6.369247 -0.799851
v -0.154737 8.168592 0.000000
v 0.603175 5.453450 -0.281206
v -0.011779 6.911165 -0.551180
v 0.036757 7.229489 0.299069
v -0.208941 6.426292 0.807628
v 0.212690 2.071249 -0.023423
v 0.606802 5.448941 0.311192
v 0.410280 3.626761 -0.133038
v 0.323228 3.661201 0.573563
v -0.158536 3.885652 -0.613041
v -0.540759 7.026442 -0.000000
v -0.694073 4.340771 -0.313767
v -0.861481 6.418003 -0.361684
v -0.721123 6.664445 0.492646
v -0.165440 3.888193 0.797565
v -0.262120 -0.009445 -0.019321
v -0.703537 4.295409 0.375268
v -0.348153 2.409540 -0.339738
v -0.379170 2.950070 0.432971
v 0.045471 1.249153 -0.016339
v -0.328175 1.530116 -0.250084
v -0.323251 1.460346 0.192531
vt 0.493088 -0.000001
vt 0.503969 0.391861
vt 0.550153 0.184654
vt 0.600339 0.402647
vt 0.636030 0.622835
vt 0.411584 0.275470
vt 0.446404 0.769795
vt 0.348282 0.630271
vt 0.444619 0.341260
vt 0.333289 0.431527
vt 0.538491 0.534011
vt 0.660024 0.602670
vt 0.641773 0.911210
vt 0.499051 1.000057
vt 0.601956 0.804812
vt 0.526002 0.812691
vt 0.468620 0.886921
vt 0.325467 0.699148
vt 0.484858 0.727967
vt 0.321402 0.850127
vt 0.532627 0.127942
vt 0.500674 0.273198
vt 0.440180 0.178820
vn 0.465343 -0.111646 -0.878061
vn 0.463212 -0.099207 -0.880677
vn 0.466801 -0.109307 -0.877581
vn 0.443684 -0.104435 -0.890078
vn 0.468492 -0.133173 -0.873373
vn 0.537355 -0.195507 -0.820382
vn 0.568779 -0.219810 -0.792574
vn -0.999099 -0.042198 0.004464
vn -0.999178 -0.040254 0.004771
vn -0.999302 -0.037348 -0.000429
vn -0.984083 -0.175930 -0.025099
vn -0.994514 -0.103729 0.013506
vn -0.982364 -0.186918 0.004736
vn -0.977127 -0.190220 0.095071
vn 0.441449 -0.109996 0.890519
vn 0.445391 -0.102102 0.889495
vn 0.464465 -0.108481 0.878922
vn 0.405814 -0.185363 0.894961
vn 0.199753 -0.376173 0.904761
vn 0.244981 -0.320000 0.915196
vn 0.223676 -0.396921 0.890181
vn 0.985073 -0.116178 0.127021
vn 0.985503 -0.124689 0.115050
vn 0.983490 -0.128492 0.127426
vn 0.993123 -0.113805 0.027467
vn 0.994389 -0.105565 -0.006893
vn -0.445278 0.475725 -0.758560
vn -0.482957 0.390794 -0.783602
vn -0.396201 0.357718 -0.845614
vn -0.486817 0.360886 -0.795469
vn -0.907043 0.306561 0.288607
vn -0.222170 0.569190 0.791620
vn -0.029489 0.359126 0.932823
vn -0.373522 0.520436 0.767872
vn -0.328963 0.403510 0.853794
vn -0.941514 0.318211 -0.110877
vn -0.540452 -0.085549 -0.837014
vn -0.531886 -0.068740 -0.844021
vn -0.535532 -0.077149 -0.840984
vn -0.534520 -0.063104 -0.842797
vn -0.535761 -0.062602 -0.842046
vn 0.605074 -0.127639 -0.785871
vn 0.569454 -0.104081 -0.815407
vn 0.527744 -0.059165 -0.847340
vn 0.585773 0.034116 -0.809757
vn 0.665528 0.145170 -0.732119
vn 0.952383 0.304883 -0.003511
vn 0.951678 0.299829 -0.066419
vn 0.954969 0.255002 0.151683
vn 0.950818 0.279287 -0.133953
vn 0.859590 0.283948 -0.424829
vn 0.439484 0.061805 0.896122
vn 0.543862 0.037521 0.838335
vn 0.479643 0.035891 0.876729
vn 0.625887 0.131956 0.768670
vn 0.689096 0.225304 0.688756
vn -0.996553 -0.080752 -0.019004
vn -0.997373 -0.060248 0.040229
vn -0.990965 0.022976 0.132142
vn -0.987564 0.062809 0.144129
vn -0.887742 0.460155 0.013110
vn -0.671357 -0.130576 0.729541
vn -0.646185 -0.065333 0.760379
vn -0.624469 -0.035575 0.780239
vn -0.554748 -0.039863 0.831063
vn -0.538627 -0.045682 0.841305
s 1
g pPlatonic1
usemtl lambert2SG
f 17/1/1 22/22/2 21/21/3
f 7/3/4 19/2/5 9/4/6
f 19/2/5 11/5/7 9/4/6
s 3
f 17/1/8 23/23/9 22/22/10
f 13/7/11 19/2/12 18/8/13
f 18/8/13 19/2/12 20/6/14
s 5
f 17/1/15 21/21/16 23/23/17
f 7/3/18 10/9/19 20/6/20
f 16/10/21 20/6/20 10/9/19
s 7
f 7/3/22 9/4/23 10/9/24
f 10/9/24 9/4/23 8/11/25
f 3/12/26 8/11/25 9/4/23
s 8
f 1/13/27 14/14/28 4/15/29
f 4/15/29 14/14/28 2/16/30
f 12/17/31 2/16/30 14/14/28
s 9
f 6/18/32 5/19/33 15/20/34
f 5/19/33 2/16/35 15/20/34
f 2/16/35 12/17/36 15/20/34
s 10
f 19/2/37 13/7/38 11/5/39
f 11/5/39 13/7/38 1/13/40
f 14/14/41 1/13/40 13/7/38
s 11
f 9/4/42 11/5/43 3/12/44
f 11/5/43 1/13/45 3/12/44
f 1/13/45 4/15/46 3/12/44
s 12
f 8/11/47 3/12/48 5/19/49
f 5/19/49 3/12/48 2/16/50
f 2/16/50 3/12/48 4/15/51
s 13
f 10/9/52 8/11/53 16/10/54
f 16/10/54 8/11/53 6/18/55
f 5/19/56 6/18/55 8/11/53
s 14
f 13/7/57 18/8/58 14/14/59
f 18/8/58 15/20/60 14/14/59
f 12/17/61 14/14/59 15/20/60
s 15
f 20/6/62 16/10/63 18/8/64
f 16/10/63 6/18/65 18/8/64
f 6/18/65 15/20/66 18/8/64
s 1
f 21/21/3 22/22/2 7/3/4
f 7/3/4 22/22/2 19/2/5
s 3
f 23/23/9 20/6/14 22/22/10
f 22/22/10 20/6/14 19/2/12
s 5
f 21/21/16 7/3/18 23/23/17
f 23/23/17 7/3/18 20/6/20
