# 3ds Max Wavefront OBJ Exporter v0.99 - (c)2007 guruware
# 创建的文件:17.08.2026 20:38:03

#
# object SD4
#

v  -24.5778 342.1721 20.3780
v  -15.2712 356.2488 13.8954
v  3.2920 417.6277 12.5064
v  48.1603 119.5768 3.7506
v  60.2492 140.1362 -1.3868
v  -5.3499 145.3649 17.9345
v  -14.0630 144.9371 20.6282
v  -3.3291 171.2862 14.5849
v  -2.4927 168.5903 14.5791
v  21.5425 176.1902 5.5902
v  14.9389 186.0541 6.4413
v  -5.2593 299.0074 4.2514
v  -15.3831 293.2416 12.1909
v  -18.1825 256.8418 15.4500
v  -12.5649 275.3940 10.8282
v  22.6091 335.9604 -18.4978
v  4.2998 339.5406 -3.3380
v  3.8727 330.2377 -3.4201
v  3.0496 321.4901 -2.8829
v  21.8531 216.2228 -1.6158
v  34.3347 216.7667 -7.6014
v  42.9938 224.3749 -13.8350
v  -10.6031 54.5349 40.4039
v  13.0838 0.0178 22.2134
v  8.7057 51.1393 26.4622
v  74.7572 123.9551 -4.9632
v  75.3019 178.5060 -13.4588
v  72.8554 94.8486 -6.8831
v  -3.6227 225.7175 9.3762
v  2.0601 220.6425 7.1250
v  -37.2298 229.3930 26.5139
v  -20.9681 239.4419 17.7311
v  -5.0458 247.0500 8.0553
v  27.5680 85.8624 12.3759
v  45.9657 60.9850 -0.2413
# 35 vertices

vn 0.6594 0.7461 0.0924
vn 0.7129 0.6836 0.1565
vn 0.7556 0.6189 0.2145
vn 0.3560 0.9342 -0.0231
vn 0.3340 0.9375 -0.0982
vn 0.2890 0.9515 -0.1057
vn 0.2898 0.9524 -0.0945
vn 0.3272 0.9397 -0.0995
vn 0.3199 0.9424 -0.0972
vn 0.3411 0.9282 -0.1483
vn 0.3426 0.9275 -0.1494
vn 0.6065 0.7946 -0.0293
vn 0.6090 0.7928 -0.0224
vn 0.6112 0.7914 -0.0069
vn -0.9591 -0.0426 -0.2798
vn 0.6347 0.7724 0.0245
vn 0.6389 0.7684 0.0361
vn -0.9660 -0.2527 -0.0540
vn 0.6679 0.7440 0.0172
vn 0.4276 0.8862 -0.1786
vn 0.4136 0.8827 -0.2233
vn 0.4278 0.8794 -0.2087
vn 0.5848 0.8112 0.0055
vn 0.5833 0.8121 0.0175
vn 0.5839 0.8118 0.0129
vn 0.2172 0.9759 0.0209
vn 0.3801 0.9145 -0.1386
vn 0.3267 0.9419 0.0788
vn 0.6347 0.6458 -0.4243
vn 0.4224 0.9035 -0.0722
vn 0.4518 0.8909 -0.0475
vn 0.4652 0.8844 -0.0390
vn 0.5016 0.8637 -0.0486
vn 0.5361 0.8436 0.0313
vn 0.4881 0.8691 0.0798
# 35 vertex normals

vt 0.1008 0.9400 0.0000
vt 0.9503 0.9349 0.0000
vt 0.5000 1.0000 0.0000
vt 0.1008 0.2654 0.0000
vt 0.9503 0.3299 0.0000
vt 0.9503 0.3535 0.0000
vt 0.1008 0.3329 0.0000
vt 0.1008 0.4003 0.0000
vt 0.9503 0.3982 0.0000
vt 0.9503 0.4609 0.0000
vt 0.1008 0.4678 0.0000
vt 0.9503 0.7730 0.0000
vt 0.1008 0.8050 0.0000
vt 0.1008 0.7376 0.0000
vt 0.9503 0.7325 0.0000
vt 0.9503 0.8540 0.0000
vt 0.9503 0.8945 0.0000
vt 0.1008 0.8725 0.0000
vt 0.9503 0.8135 0.0000
vt 0.1008 0.5352 0.0000
vt 0.9503 0.5300 0.0000
vt 0.9503 0.5705 0.0000
vt 0.1008 0.1305 0.0000
vt 0.5000 0.0000 0.0000
vt 0.9503 0.1319 0.0000
vt 0.9503 0.3275 0.0000
vt 0.9503 0.2606 0.0000
vt 0.9503 0.6110 0.0000
vt 0.1008 0.6027 0.0000
vt 0.1008 0.6701 0.0000
vt 0.9503 0.6515 0.0000
vt 0.9503 0.6920 0.0000
vt 0.1008 0.1980 0.0000
vt 0.9503 0.2010 0.0000
# 34 texture coords

o SD4
g SD4
s 1
f 1/1/1 2/2/2 3/3/3 
f 4/4/4 5/5/5 6/6/6 7/7/7 
f 8/8/8 9/9/9 10/10/10 11/11/11 
f 12/12/12 13/13/13 14/14/14 15/15/15 
f 16/16/16 17/17/17 18/18/18 19/19/19 
f 20/20/20 21/21/21 22/22/22 
f 23/23/23 24/24/24 25/25/25 
f 26/26/26 27/6/27 5/5/5 
f 4/4/4 28/27/28 26/26/26 5/5/5 
f 10/10/10 21/21/21 20/20/20 11/11/11 
f 8/8/8 7/7/7 6/6/6 9/9/9 
f 12/12/12 19/19/19 18/18/18 13/13/13 
f 29/28/29 30/29/30 20/20/20 22/22/22 
f 31/30/31 30/29/30 29/28/29 32/31/32 
f 14/14/14 31/30/31 32/31/32 
f 14/14/14 32/31/32 33/32/33 15/15/15 
f 17/17/17 2/2/2 1/1/1 18/18/18 
f 34/33/34 23/23/23 25/25/25 35/34/35 
f 4/4/4 34/33/34 35/34/35 28/27/28 
# 14 polygons - 5 triangles

