# UnrealEd OBJ exporter

v -2.414911 0.000000 -4.149289
v -18.910664 -0.000000 1.758721
v 3.246168 1.500000 -1.634669
v -18.910664 -0.000000 1.758721
v 9.429648 -0.000000 1.758721
v 8.306314 1.500000 1.212089
v -18.910664 -0.000000 1.758721
v 8.306314 1.500000 1.212089
v 3.246168 1.500000 -1.634669
v -2.414911 0.000000 -4.149289
v 3.246168 -1.500000 -1.634669
v -18.910664 -0.000000 1.758721
v -18.910664 -0.000000 1.758721
v 8.306314 -1.500000 1.212089
v 9.429648 -0.000000 1.758721
v -18.910664 -0.000000 1.758721
v 3.246168 -1.500000 -1.634669
v 8.306314 -1.500000 1.212089
v 8.306314 1.500000 1.212089
v 9.429648 -0.000000 1.758721
v 8.306314 -1.500000 1.212089
v 8.306314 1.500000 1.212089
v 8.306314 -1.500000 1.212089
v 3.246168 -1.500000 -1.634669
v 3.246168 -1.500000 -1.634669
v 3.246168 1.500000 -1.634669
v 8.306314 1.500000 1.212089
v 3.246168 -1.500000 -1.634669
v -2.414911 0.000000 -4.149289
v 3.246168 1.500000 -1.634669

vt 0.473389 0.364746
vt 0.593262 0.196777
vt 0.524414 0.422363
vt 0.593262 0.196777
vt 0.593262 0.484863
vt 0.582520 0.473633
vt 0.593262 0.196777
vt 0.582520 0.473633
vt 0.524414 0.422363
vt 0.473389 0.364746
vt 0.524414 0.422363
vt 0.593262 0.196777
vt 0.593262 0.196777
vt 0.582520 0.473633
vt 0.593262 0.484863
vt 0.593262 0.196777
vt 0.524414 0.422363
vt 0.582520 0.473633
vt 0.088257 0.365234
vt 0.060242 0.339844
vt 0.088257 0.313965
vt 0.088257 0.365234
vt 0.088257 0.313965
vt 0.157349 0.313965
vt 0.157349 0.313965
vt 0.157349 0.365234
vt 0.088257 0.365234
vt 0.157349 0.313965
vt 0.319580 0.339844
vt 0.157349 0.365234

g UnrealEdObject

s 0
f 1/1 2/2 3/3
f 4/4 5/5 6/6
f 16/16 17/17 18/18
s 1
f 7/7 8/8 9/9
f 10/10 11/11 12/12
f 13/13 14/14 15/15
s 2
f 19/19 20/20 21/21
f 22/22 23/23 24/24
f 25/25 26/26 27/27
f 28/28 29/29 30/30

g
