<svg xmlns="http://www.w3.org/2000/svg" width="100" height="100" viewBox="0 0 64 64">
  <title>H · 心形药瓶</title>
  <desc>候选瓶型，建议用于嗜血药水 · 另一方向。心形双肩和尖底，突出生命主题与魔女气质。</desc>
  <defs>
    <clipPath id="body"><path d="M27 16H37V27C45 19 56 26 55 37C54 45 43 53 32 60C21 53 10 45 9 37C8 26 19 19 27 27Z"/></clipPath>
    <linearGradient id="liquid" x1="0" y1="0" x2="0" y2="1"><stop stop-color="#f2c5d6"/><stop offset=".38" stop-color="#c06d8c"/><stop offset="1" stop-color="#7c3d65"/></linearGradient>
    <linearGradient id="cork" x2="0" y2="1"><stop stop-color="#e7c8a0"/><stop offset=".5" stop-color="#bc9273"/><stop offset="1" stop-color="#8c6271"/></linearGradient>
  </defs>
  <g transform="rotate(0 32 32)">
  <path d="M27 16H37V27C45 19 56 26 55 37C54 45 43 53 32 60C21 53 10 45 9 37C8 26 19 19 27 27Z" fill="#e6e0ff" fill-opacity=".3"/>
  <g clip-path="url(#body)">
    <g transform="rotate(0 32 32)">
      <path d="M5 37Q18 34 32 37T59 37V64H5Z" fill="url(#liquid)"/>
      <path d="M5 37Q18 34 32 37T59 37" fill="none" stroke="#f2c5d6" stroke-width=".9"/>
    </g>
    <path d="" fill="none" stroke="#f2c5d6" stroke-width=".65" stroke-opacity=".7"/>
    <g fill="#f6e4be" stroke="#917487" stroke-width=".4" stroke-linejoin="round"><path d="M32 39c-1.8 3.6-5.5 7-5.5 10a5.5 5.5 0 0 0 11 0c0-3-3.7-6.4-5.5-10Z"/><path d="M29 48q-1 3 1 4" fill="none" stroke="#fff" stroke-width=".75"/></g>
    <circle cx="39" cy="42" r=".9" fill="none" stroke="#f4e8ff" stroke-width=".65"/>
    <circle cx="23" cy="49" r=".6" fill="#efdef1"/>
  </g>
  <path d="M27 16H37V27C45 19 56 26 55 37C54 45 43 53 32 60C21 53 10 45 9 37C8 26 19 19 27 27Z" fill="none" stroke="#4b395d" stroke-width="1.4" stroke-linejoin="round"/>
  <path d="M21 27q-8-1-8 8" fill="none" stroke="#fff" stroke-width="1.5" stroke-opacity=".8" stroke-linecap="round"/>
  <path d="M28.0 16v4" stroke="#fff" stroke-opacity=".55" stroke-width=".85" stroke-linecap="round"/>
  <rect x="26.0" y="8" width="12" height="6" rx="1.7" fill="url(#cork)" stroke="#634555" stroke-width=".8"/>
  <path d="M28.0 10h8" stroke="#f0cf9c" stroke-width=".8" stroke-linecap="round"/>
  <circle cx="28.0" cy="12.6" r=".45" fill="#785162"/>
  <rect x="25.0" y="14" width="14" height="2.8" rx="1.2" fill="#d8c9e6" stroke="#6c537e" stroke-width=".85"/>
  <path d="M26 18h12v2.5H26Z" fill="#cba5cd" stroke="#805785" stroke-width=".65"/><path d="M36 19q8-5 10 0-1 4-10 1Zm0 1q4 4 8 6l-1-4 3 1q-3-4-10-3Z" fill="#d6b7d7" stroke="#805785" stroke-width=".65"/><path d="m31 20-3 7" stroke="#d3b186" stroke-width=".7"/><circle cx="28" cy="28" r="2.2" fill="#edd4a8" stroke="#937285" stroke-width=".6"/>
  </g>
</svg>